<svg width="200" height="200" viewBox="0 0 200 200" version="1.1" xmlns="http://www.w3.org/2000/svg" xmlns:xlink="http://www.w3.org/1999/xlink">
<g data-name="Canvas" fill="none">
<g data-name="Snapchat">
<g data-name="Background Shape">
<mask id="mask0" mask-type="alpha" maskUnits="userSpaceOnUse" x="0" y="0" width="200" height="200">
<g data-name="Group 2">
<g data-name="Vector">
<path d="M 45.8656 91.7313C 71.1965 91.7313 91.7313 71.1965 91.7313 45.8656C 91.7313 20.5348 71.1965 1.57714e-05 45.8656 1.57714e-05C 20.5347 1.57714e-05 -3.94284e-06 20.5348 -3.94284e-06 45.8656C -3.94284e-06 71.1965 20.5347 91.7313 45.8656 91.7313Z" transform="translate(8.26904 8.01025) scale(2)" fill="#E50E79"/>
</g>
<g data-name="Vector">
<path d="M 50 100C 22.3514 100 0 77.5194 0 50C 0 22.3514 22.4806 7.88568e-06 50 7.88568e-06C 77.5194 7.88568e-06 100 22.4806 100 50C 100 77.5194 77.5194 100 50 100ZM 50 1.16279C 23.1266 1.16279 1.29199 22.9974 1.29199 49.8708C 1.29199 76.7442 23.1266 98.5788 50 98.5788C 76.8734 98.5788 98.708 76.7442 98.708 49.8708C 98.708 22.9974 76.8734 1.16279 50 1.16279Z" transform="scale(2)" fill="#E50E79"/>
</g>
</g>
</mask>
<g mask="url(#mask0)">
<g data-name="Color">
<rect width="100" height="100" transform="scale(2)" fill="#F5E728"/>
</g>
<g data-name="Rectangle">
<path d="M 100 100L 100 0L 0 100L 100 100Z" transform="scale(2)" fill="black" fill-opacity="0.1"/>
</g>
</g>
<g data-name="Social Icon">
<g data-name="snapchat">
<path fill-rule="evenodd" clip-rule="evenodd" d="M 24.4049 0C 26.2855 0 32.7611 0.502997 35.8128 7.31528C 36.8176 9.5585 36.5601 13.622 36.3535 16.8862C 36.3212 17.4042 36.2892 17.9063 36.2632 18.3857L 36.2522 18.5918L 36.3904 18.7453C 36.4462 18.807 36.9686 19.3505 38.1303 19.3952L 38.149 19.3963L 38.1686 19.3959C 38.9366 19.3667 39.8018 19.1292 40.7413 18.6909C 40.8798 18.6264 41.064 18.595 41.2589 18.595C 41.4809 18.595 41.7169 18.6365 41.9115 18.7181L 41.9409 18.7298C 42.4336 18.9017 42.7819 19.2258 42.7872 19.5191C 42.7901 19.6849 42.6656 20.2822 40.9192 20.9691C 40.7485 21.0362 40.5238 21.1076 40.2634 21.1893C 39.1268 21.5487 37.4098 22.0909 36.832 23.4468C 36.5066 24.2106 36.5957 25.1119 37.0966 26.1254C 37.3026 26.6043 40.5467 33.8802 47.8465 35.0779C 47.8451 35.1124 47.8362 35.1501 47.8167 35.1945C 47.693 35.4847 46.9066 36.4872 42.0129 37.239C 41.2471 37.3558 41.0595 38.2105 40.842 39.2041C 40.7635 39.5598 40.6836 39.9189 40.5738 40.2898C 40.5402 40.4018 40.534 40.4082 40.4134 40.4082C 40.3967 40.4082 40.3772 40.4082 40.3559 40.4082C 40.1389 40.4082 39.8095 40.3633 39.4276 40.2887C 38.7323 40.1539 37.7823 39.9885 36.5679 39.9885C 35.8901 39.9885 35.1918 40.0471 34.4913 40.1636C 32.9937 40.4115 31.7759 41.2692 30.4861 42.177C 28.754 43.3957 26.9638 44.6567 24.2323 44.6567C 24.113 44.6567 23.9966 44.6527 23.8799 44.6469L 23.8492 44.6456L 23.8183 44.6479C 23.7513 44.6538 23.6838 44.6567 23.6149 44.6567C 20.8838 44.6567 19.0927 43.3961 17.3614 42.177C 16.0714 41.2692 14.8529 40.4115 13.3556 40.1636C 12.6557 40.0475 11.9568 39.9885 11.2794 39.9885C 10.0653 39.9885 9.11412 40.1734 8.42019 40.3085C 8.03836 40.3829 7.70779 40.4466 7.49144 40.4466C 7.31425 40.4466 7.31087 40.4363 7.2734 40.3088C 7.1636 39.9377 7.08333 39.57 7.00514 39.2149C 6.7871 38.2203 6.59937 37.3609 5.83402 37.2439C 0.940723 36.4914 0.154164 35.4873 0.0300521 35.1979C 0.0106679 35.1523 0.00195144 35.1134 0 35.079C 7.29968 33.8823 10.5431 26.6061 10.7498 26.1254C 11.2516 25.1127 11.3406 24.2115 11.0142 23.4468C 10.4363 22.0917 8.71954 21.5487 7.58381 21.19C 7.3227 21.1077 7.0979 21.0362 6.92708 20.9691C 5.45232 20.3889 4.99867 19.8045 5.06606 19.4503C 5.14425 19.0419 5.85535 18.6266 6.47591 18.6266C 6.61537 18.6266 6.73766 18.649 6.82808 18.6911C 7.83593 19.1614 8.75597 19.3999 9.56295 19.3999C 10.8315 19.3999 11.3961 18.8122 11.4568 18.7451L 11.5943 18.592L 11.5832 18.3869C 11.5576 17.9078 11.526 17.4058 11.4927 16.8888C 11.2867 13.6238 11.0291 9.56303 12.0336 7.31969C 15.0739 0.532402 21.518 0.00919721 23.4202 0.00919721C 23.4671 0.00919721 24.2941 0.000777229 24.2941 0.000777229C 24.3279 0.000518153 24.3655 0 24.4049 0Z" transform="translate(52.0073 55.1968) scale(2)" fill="white"/>
</g>
</g>
</g>
</g>
</svg>

